# xmcd CD database file
#
# Track frame offsets:
#	150
#	16044
#	30599
#	47669
#	61675
#	76242
#	92287
#	101667
#	113677
#	127456
#	140705
#
# Disc length: 2105 seconds
#
# Revision: 1
# Processed by: cddbd v1.5.2PL0 Copyright (c) Steve Scherf et al.
# Submitted via: CDex 1.70beta2
#
DISCID=8408370b
DTITLE=Sissi Perlinger - Singledämmerung (2006)
DYEAR=2006
DGENRE=Kabarett
TTITLE0=Ich bin wie ne Gitarre
TTITLE1=Fliesen
TTITLE2=Einerseits
TTITLE3=Drink
TTITLE4=Ho Brauner Ho
TTITLE5=Schwein
TTITLE6=Wichtig
TTITLE7=Königin
TTITLE8=Die Schlange
TTITLE9=Wut tut gut
TTITLE10=Häufchen
EXTD=YEAR: 2006
EXTT0=
EXTT1=
EXTT2=
EXTT3=
EXTT4=
EXTT5=
EXTT6=
EXTT7=
EXTT8=
EXTT9=
EXTT10=
PLAYORDER=
